<svg width="16" height="24" viewBox="0 0 16 24" fill="none" xmlns="http://www.w3.org/2000/svg">
<path d="M10.6299 16.54C9.2899 17.54 8.6299 18.42 8.0499 17.54C7.3199 16.8 4.1999 9.27002 4.1899 8.19002C3.9999 7.05002 4.9999 7.24002 6.6999 7.00002C8.3999 6.76002 6.9999 1.00002 6.8899 1.00002C6.7799 1.00002 4.2799 -0.999975 1.6399 1.80002C-1.0001 4.60002 -0.0901017 9.91003 1.7299 14.55C1.7299 14.55 1.7299 14.55 1.7299 14.62V14.7C3.7299 19.27 6.8499 23.7 10.6499 23.81C11.6715 23.9111 12.6928 23.6155 13.5025 22.9845C14.3122 22.3535 14.8483 21.4353 14.9999 20.42C15.0699 20.34 11.9999 15.53 10.6299 16.54Z" fill="#008000"/>
<path d="M10.6299 16.26C9.2899 17.26 8.6299 18.13 8.0499 17.26C7.3199 16.48 4.1999 9 4.1899 7.87C3.9999 6.77 4.9999 7 6.6999 6.72C8.3999 6.44 6.9699 0.720004 6.8899 0.720004C6.8099 0.720004 4.2799 -1.23 1.6399 1.56C-1.0001 4.35 -0.0901017 9.68 1.7299 14.31C1.7299 14.31 1.7299 14.36 1.7299 14.38V14.46C3.7299 19.03 6.8499 23.46 10.6499 23.56C14.4499 23.66 14.9399 20.56 14.9699 20.46C14.9999 20.36 11.9999 15.25 10.6299 16.26Z" fill="#008000"/>
<g style="mix-blend-mode:multiply">
<g style="mix-blend-mode:multiply">
<path d="M1.63994 1.94002C4.27994 -0.849984 6.80994 1.06002 6.88994 1.10002C7.25275 2.37034 7.46092 3.67981 7.50994 5.00002C7.50248 3.53511 7.29386 2.07816 6.88994 0.670016C6.80994 0.670016 4.27994 -1.27998 1.63994 1.51002C0.436794 2.95571 -0.151958 4.81531 -5.63301e-05 6.69002C-0.0738599 4.95624 0.512161 3.25893 1.63994 1.94002V1.94002Z" fill="#008000"/>
</g>
<g style="mix-blend-mode:multiply">
<path d="M4.1899 8.29C4.1899 9.37 7.3199 16.9 8.0499 17.64C8.6799 18.56 9.2899 17.7 10.6299 16.64C11.9699 15.58 14.5099 19.82 14.9699 20.64C14.9699 20.47 15.0299 20.37 15.0299 20.36C15.0299 20.35 12.0299 15.19 10.6299 16.2C9.2299 17.21 8.6299 18.07 8.0499 17.2C7.3199 16.48 4.1999 9 4.1899 7.87C4.16017 8.00842 4.16017 8.15157 4.1899 8.29Z" fill="#008000"/>
</g>
</g>
</svg>
